<mxfile host="app.diagrams.net" modified="2021-10-25T07:55:55.297Z" agent="5.0 (Windows NT 10.0; Win64; x64) AppleWebKit/537.36 (KHTML, like Gecko) Chrome/94.0.4606.81 Safari/537.36" etag="nfVidKdTKGVm9I2jPZ3g" version="15.5.4" type="github">
  <diagram id="Iy78NmgVhlyqYcQx1wdt" name="Page-1">
    <mxGraphModel dx="1422" dy="794" grid="1" gridSize="10" guides="1" tooltips="1" connect="1" arrows="1" fold="1" page="1" pageScale="1" pageWidth="827" pageHeight="1169" math="0" shadow="0">
      <root>
        <mxCell id="0" />
        <mxCell id="1" parent="0" />
        <mxCell id="BmIJjtoEZFwzUHg4kpTr-5" style="edgeStyle=orthogonalEdgeStyle;rounded=0;orthogonalLoop=1;jettySize=auto;html=1;entryX=0.5;entryY=0;entryDx=0;entryDy=0;" edge="1" parent="1" source="BmIJjtoEZFwzUHg4kpTr-3" target="BmIJjtoEZFwzUHg4kpTr-6">
          <mxGeometry relative="1" as="geometry">
            <mxPoint x="455" y="330" as="targetPoint" />
          </mxGeometry>
        </mxCell>
        <mxCell id="BmIJjtoEZFwzUHg4kpTr-3" value="" style="rounded=0;whiteSpace=wrap;html=1;" vertex="1" parent="1">
          <mxGeometry x="310" y="90" width="290" height="140" as="geometry" />
        </mxCell>
        <mxCell id="BmIJjtoEZFwzUHg4kpTr-4" value="&lt;h1&gt;Intro (1,5h)&lt;/h1&gt;&lt;p&gt;* Ejemplos&lt;/p&gt;&lt;p&gt;*Diferencias Raster - Vector&lt;/p&gt;&lt;p&gt;* Diferencias Vectorial - Teselado&lt;/p&gt;" style="text;html=1;strokeColor=none;fillColor=none;spacing=5;spacingTop=-20;whiteSpace=wrap;overflow=hidden;rounded=0;" vertex="1" parent="1">
          <mxGeometry x="350" y="100" width="190" height="120" as="geometry" />
        </mxCell>
        <mxCell id="BmIJjtoEZFwzUHg4kpTr-6" value="" style="rounded=0;whiteSpace=wrap;html=1;" vertex="1" parent="1">
          <mxGeometry x="322.5" y="390" width="265" height="140" as="geometry" />
        </mxCell>
      </root>
    </mxGraphModel>
  </diagram>
</mxfile>
